<?xml version="1.0" standalone="no"?>
<!DOCTYPE svg PUBLIC "-//W3C//DTD SVG 20010904//EN"
 "http://www.w3.org/TR/2001/REC-SVG-20010904/DTD/svg10.dtd">
<svg version="1.0" xmlns="http://www.w3.org/2000/svg"
 width="260.000000pt" height="260.000000pt" viewBox="0 0 260.000000 260.000000"
 preserveAspectRatio="xMidYMid meet">
<metadata>
Created by potrace 1.11, written by Peter Selinger 2001-2013
</metadata>
<g transform="translate(0.000000,260.000000) scale(0.100000,-0.100000)"
fill="#000000" stroke="none">
<path d="M90 1300 l0 -1210 1210 0 1210 0 0 1210 0 1210 -1210 0 -1210 0 0
-1210z m2320 0 l0 -1110 -1110 0 -1110 0 0 1110 0 1110 1110 0 1110 0 0 -1110z"/>
<path d="M485 1331 l0 -501 68 0 68 0 -1 73 c-1 39 -1 129 -1 200 l1 127 94 0
c86 0 95 -2 109 -22 8 -13 26 -34 38 -48 24 -24 57 -63 128 -149 20 -25 62
-75 94 -113 l59 -68 85 0 c98 0 98 -11 -2 105 -33 38 -70 81 -81 95 -27 32
-162 188 -187 217 l-19 22 41 21 c83 42 141 118 157 204 22 126 -17 227 -111
282 -74 43 -127 51 -341 53 l-199 2 0 -500z m437 351 c80 -39 103 -135 57
-229 -38 -76 -83 -95 -235 -101 l-123 -5 -3 54 c-2 30 -2 112 0 182 l3 129
127 -4 c108 -3 134 -7 174 -26z"/>
<path d="M1445 1330 l0 -502 250 4 c285 5 322 13 409 90 65 57 88 106 94 200
4 69 2 84 -22 132 -31 63 -71 101 -138 129 l-47 19 49 45 c56 50 74 93 73 174
-2 68 -25 114 -79 152 -66 46 -121 55 -366 56 l-223 2 0 -501z m473 356 c84
-44 75 -188 -15 -232 -30 -14 -68 -19 -180 -22 l-143 -4 0 142 0 142 153 -4
c121 -3 159 -7 185 -22z m56 -402 c58 -30 79 -64 84 -133 7 -103 -38 -162
-144 -187 -29 -6 -116 -13 -193 -13 l-141 -2 0 182 0 181 178 -4 c155 -3 182
-6 216 -24z"/>
</g>
</svg>
